# xmcd
#
# Track frame offsets:
#	150
#	26353
#	43590
#	80537
#	101122
#	136390
#
# Disc length: 2466 seconds
#
# Revision: 1
# Processed by: cddbd v1.5.2PL0 Copyright (c) Steve Scherf et al.
# Submitted via: audiograbber 1.83.01
#
DISCID=4609a006
DTITLE=johnny cash - the lure of the grand canyon (1961)
DYEAR=2013
DGENRE=Country
TTITLE0=sunrise
TTITLE1=painted desert
TTITLE2=on the trail
TTITLE3=sunset
TTITLE4=cloudburst
TTITLE5=a day in the grand canyon
EXTD=
EXTT0=
EXTT1=
EXTT2=
EXTT3=
EXTT4=
EXTT5=
PLAYORDER=
